<?xml version="1.0" encoding="UTF-8" standalone="no"?>
<svg
   width="18.375"
   height="29.632322"
   viewBox="0 0 18.375 29.632323"
   version="1.1"
   id="svg892"
   sodipodi:docname="artworkmark.svg"
   inkscape:version="1.1.2 (0a00cf5339, 2022-02-04)"
   xmlns:inkscape="http://www.inkscape.org/namespaces/inkscape"
   xmlns:sodipodi="http://sodipodi.sourceforge.net/DTD/sodipodi-0.dtd"
   xmlns="http://www.w3.org/2000/svg"
   xmlns:svg="http://www.w3.org/2000/svg">
  <defs
     id="defs896" />
  <sodipodi:namedview
     id="namedview894"
     pagecolor="#ffffff"
     bordercolor="#666666"
     borderopacity="1.0"
     inkscape:pageshadow="2"
     inkscape:pageopacity="0.0"
     inkscape:pagecheckerboard="0"
     showgrid="false"
     inkscape:zoom="25.678572"
     inkscape:cx="1.5382475"
     inkscape:cy="15.401947"
     inkscape:window-width="1846"
     inkscape:window-height="1016"
     inkscape:window-x="0"
     inkscape:window-y="0"
     inkscape:window-maximized="1"
     inkscape:current-layer="svg892"
     inkscape:object-paths="true"
     inkscape:snap-midpoints="true"
     inkscape:snap-smooth-nodes="true"
     fit-margin-top="0"
     fit-margin-left="0"
     fit-margin-right="0"
     fit-margin-bottom="0" />
  <g
     id="g5703">
    <path
       id="path1180"
       style="fill:#fffafa;stroke:#808080;stroke-width:1;stroke-miterlimit:4;stroke-dasharray:none;stop-color:#000000;stroke-opacity:1"
       inkscape:transform-center-x="2.5164787"
       inkscape:transform-center-y="-0.40667357"
       d="M 9.1875,0.5 A 8.6878052,8.6878052 0 0 0 0.50000002,9.1875 8.6878052,8.6878052 0 0 0 1.3730469,12.958984 H 1.3613281 L 9.1875,28.519531 17.013672,12.958984 h -0.01172 A 8.6878052,8.6878052 0 0 0 17.875,9.1875 8.6878052,8.6878052 0 0 0 9.1875,0.5 Z" />
    <g
       id="g3646"
       transform="translate(2.6445307,3.5121087)">
      <path
         d="m 2,1.7492685 c -0.8284271,0 -1.5,0.5876752 -1.5,1.3126095 v 6.1255124 c 2e-7,0.7249342 0.671573,1.3126086 1.5,1.3126086 h 9.000001 c 0.828427,0 1.5,-0.5876744 1.5,-1.3126086 V 3.061878 c 0,-0.7249343 -0.671573,-1.3126095 -1.5,-1.3126095 z"
         id="path825"
         style="fill:#808080;fill-opacity:1;stroke:#808080;stroke-width:0.935453;stroke-opacity:1"
         sodipodi:nodetypes="sssssssss" />
      <path
         d="m 4.60916,0.12604851 c -0.348094,0 -0.6302801,0.39995026 -0.6302801,0.5252472 0,0.32907607 0,0.65815099 0,0.98722599 h 5.0422412 c 0,-0.3120996 0,-0.64783311 0,-0.98722599 0,-0.12529694 -0.2821876,-0.5252472 -0.6302802,-0.5252472 z"
         id="path825-3"
         style="fill:#808080;fill-opacity:1;stroke:#808080;stroke-width:0.252097;stroke-opacity:1"
         sodipodi:nodetypes="sccccss" />
      <g
         id="g2228"
         transform="matrix(1.1425865,0,0,1.1425865,-0.92681229,-0.1413746)">
        <circle
           style="fill:#ffffff;fill-opacity:1;stroke-width:3.87307"
           id="path1054-6"
           cx="6.5000005"
           cy="5.484056"
           r="3.3528609" />
        <circle
           style="fill:#808080;fill-opacity:1;stroke-width:2.79805"
           id="path1054"
           cx="6.5000005"
           cy="5.484056"
           r="2.4222252" />
      </g>
    </g>
  </g>
</svg>
