<?xml version="1.0" encoding="UTF-8" standalone="no"?>
<svg
   width="18.274336"
   height="29.52647"
   viewBox="0 0 18.274336 29.526469"
   version="1.1"
   id="svg4"
   sodipodi:docname="muralmark.svg"
   inkscape:version="1.1.2 (0a00cf5339, 2022-02-04)"
   xmlns:inkscape="http://www.inkscape.org/namespaces/inkscape"
   xmlns:sodipodi="http://sodipodi.sourceforge.net/DTD/sodipodi-0.dtd"
   xmlns="http://www.w3.org/2000/svg"
   xmlns:svg="http://www.w3.org/2000/svg">
  <defs
     id="defs8" />
  <sodipodi:namedview
     id="namedview6"
     pagecolor="#ffffff"
     bordercolor="#666666"
     borderopacity="1.0"
     inkscape:pageshadow="2"
     inkscape:pageopacity="0.0"
     inkscape:pagecheckerboard="0"
     showgrid="false"
     inkscape:zoom="12.839286"
     inkscape:cx="8.7621695"
     inkscape:cy="15.304589"
     inkscape:window-width="1846"
     inkscape:window-height="1016"
     inkscape:window-x="0"
     inkscape:window-y="0"
     inkscape:window-maximized="1"
     inkscape:current-layer="svg4"
     fit-margin-top="0"
     fit-margin-left="0"
     fit-margin-right="0"
     fit-margin-bottom="0" />
  <g
     id="g1062">
    <path
       id="path1273"
       style="fill:#fffafa;stroke:#808080;stroke-width:1;stroke-miterlimit:4;stroke-dasharray:none;stroke-opacity:1;stop-color:#000000"
       d="m 17.774337,8.8240366 c 0,4.5972384 -8.6371681,19.6954944 -8.6371681,19.6954944 0,0 -8.6371675,-15.098256 -8.6371685,-19.6954944 C 0.5000014,4.2267981 4.3669925,0.5 9.1371689,0.5 c 4.7701761,0 8.6371681,3.7267981 8.6371681,8.3240366 z"
       sodipodi:nodetypes="scsss" />
    <g
       id="g975"
       transform="translate(0.37499906,-5.7570256)">
      <path
         d="m 2.726223,16.246012 c 0,0 1.7671628,1.586364 3.8391889,1.586364 2.1751745,0 3.5978271,-4.041064 5.1396751,-4.041064 1.486998,0 2.125538,1.476304 2.606327,1.476304 v 4.669159 H 2.726223 Z"
         id="path4"
         style="fill:#808080;fill-opacity:1;stroke-width:0.781559"
         sodipodi:nodetypes="csscccc" />
      <path
         d="m 4.262169,10.30459 c -0.8284271,0 -1.5,0.671573 -1.5,1.5 v 7 c 2e-7,0.828427 0.671573,1.499999 1.5,1.499999 h 9.000001 c 0.828427,0 1.5,-0.671572 1.5,-1.499999 v -7 c 0,-0.828427 -0.671573,-1.5 -1.5,-1.5 z"
         id="path825"
         style="fill:none;stroke:#808080;stroke-opacity:1"
         sodipodi:nodetypes="sssssssss" />
      <circle
         style="fill:#808080;fill-opacity:1;stroke-width:1.94772"
         id="path1054"
         cx="6.2387633"
         cy="13.868807"
         r="1.6861092" />
    </g>
  </g>
</svg>
