<?xml version="1.0" encoding="UTF-8" standalone="no"?>
<svg
   width="9.8641806"
   height="12.468393"
   viewBox="0 0 9.8641806 12.468393"
   version="1.1"
   id="svg4"
   sodipodi:docname="artwork.svg"
   inkscape:version="1.1.2 (0a00cf5339, 2022-02-04)"
   xmlns:inkscape="http://www.inkscape.org/namespaces/inkscape"
   xmlns:sodipodi="http://sodipodi.sourceforge.net/DTD/sodipodi-0.dtd"
   xmlns="http://www.w3.org/2000/svg"
   xmlns:svg="http://www.w3.org/2000/svg">
  <defs
     id="defs8" />
  <sodipodi:namedview
     id="namedview6"
     pagecolor="#ffffff"
     bordercolor="#666666"
     borderopacity="1.0"
     inkscape:pageshadow="2"
     inkscape:pageopacity="0.0"
     inkscape:pagecheckerboard="0"
     showgrid="false"
     inkscape:zoom="51.357143"
     inkscape:cx="6.5910987"
     inkscape:cy="6.4742698"
     inkscape:window-width="1846"
     inkscape:window-height="1016"
     inkscape:window-x="0"
     inkscape:window-y="0"
     inkscape:window-maximized="1"
     inkscape:current-layer="svg4"
     fit-margin-top="0"
     fit-margin-left="0"
     fit-margin-right="0"
     fit-margin-bottom="0" />
  <rect
     style="fill:#808080;stroke-width:0.187059px;-inkscape-stroke:none;stop-color:#000000"
     id="rect945-7"
     width="8.000001"
     height="1"
     x="0.93208998"
     y="11.468393" />
  <rect
     style="fill:#808080;stroke-width:0.187059px;-inkscape-stroke:none;stop-color:#000000"
     id="rect945-7-5"
     width="8.000001"
     height="1"
     x="0.93208998"
     y="0" />
  <path
     id="path1219-6"
     style="fill:#808080;stroke-width:0.273676px;stop-color:#000000"
     d="M 2.4654019,1.2499437 0,3.6499438 2.4654019,6.0499437 H 7.3987791 L 9.864181,3.6499438 7.3987791,1.2499437 Z M 4.930803,1.9281033 A 2.8469884,1.7207145 0 0 1 7.7796561,3.6483884 2.8469884,1.7207145 0 0 1 4.930803,5.3702285 2.8469884,1.7207145 0 0 1 2.0845255,3.6483884 2.8469884,1.7207145 0 0 1 4.930803,1.9281033 Z m 0,0.7170447 A 1.6604478,1.0035715 0 0 0 3.2709037,3.6483884 1.6604478,1.0035715 0 0 0 4.930803,4.6516289 1.6604478,1.0035715 0 0 0 6.593277,3.6483884 1.6604478,1.0035715 0 0 0 4.930803,2.645148 Z" />
  <path
     id="path1219-6-3"
     style="fill:#808080;stroke-width:0.273676px;stop-color:#000000"
     d="M 2.4654019,6.3259973 0,8.7259974 2.4654019,11.125998 H 7.3987791 L 9.864181,8.7259974 7.3987791,6.3259973 Z M 4.930803,7.0041569 A 2.8469884,1.7207145 0 0 1 7.7796566,8.7244424 2.8469884,1.7207145 0 0 1 4.930803,10.446283 2.8469884,1.7207145 0 0 1 2.0845255,8.7244424 2.8469884,1.7207145 0 0 1 4.930803,7.0041569 Z m 0,0.7170447 A 1.6604478,1.0035715 0 0 0 3.2709037,8.7244424 1.6604478,1.0035715 0 0 0 4.930803,9.727683 1.6604478,1.0035715 0 0 0 6.593277,8.7244424 1.6604478,1.0035715 0 0 0 4.930803,7.7212016 Z" />
</svg>
