<?xml version="1.0" encoding="UTF-8" standalone="no"?>
<svg
   width="14"
   height="14"
   viewBox="0 0 14 14"
   version="1.1"
   id="svg4"
   sodipodi:docname="statue.svg"
   inkscape:version="1.1.2 (0a00cf5339, 2022-02-04)"
   xmlns:inkscape="http://www.inkscape.org/namespaces/inkscape"
   xmlns:sodipodi="http://sodipodi.sourceforge.net/DTD/sodipodi-0.dtd"
   xmlns="http://www.w3.org/2000/svg"
   xmlns:svg="http://www.w3.org/2000/svg">
  <defs
     id="defs8" />
  <sodipodi:namedview
     id="namedview6"
     pagecolor="#ffffff"
     bordercolor="#666666"
     borderopacity="1.0"
     inkscape:pageshadow="2"
     inkscape:pageopacity="0.0"
     inkscape:pagecheckerboard="0"
     showgrid="false"
     inkscape:zoom="51.357143"
     inkscape:cx="0.029207232"
     inkscape:cy="7"
     inkscape:window-width="1846"
     inkscape:window-height="1016"
     inkscape:window-x="0"
     inkscape:window-y="0"
     inkscape:window-maximized="1"
     inkscape:current-layer="svg4" />
  <path
     d="M 7 0 C 6.4264737 0 5.9609375 0.46553614 5.9609375 1.0390625 C 5.9609375 1.612589 6.4264736 2.0761719 7 2.0761719 C 7.5735264 2.0761719 8.0390625 1.612589 8.0390625 1.0390625 C 8.0390625 0.46553614 7.5735265 0 7 0 z M 5.9609375 2.7695312 C 5.5958601 2.7695312 5.2695312 3.1012631 5.2695312 3.4609375 C 5.2695312 4.1532453 6.4804687 6.2426478 6.4804688 6.9238281 L 6.4804688 9 L 7.5195312 9 L 7.5195312 6.9238281 C 7.5195312 6.2561271 8.7304688 4.1532453 8.7304688 3.4609375 C 8.7304688 3.0778259 8.4207347 2.7695312 8.0390625 2.7695312 L 5.9609375 2.7695312 z M 4 10 L 4 11 L 10 11 L 10 10 L 4 10 z M 5 12 L 5 14 L 9 14 L 9 12 L 5 12 z"
     id="path2"
     style="fill:#808080;fill-opacity:1" />
</svg>
