<?xml version="1.0" encoding="UTF-8" standalone="no"?>
<svg
   width="18.375"
   height="29.632322"
   viewBox="0 0 18.375 29.632323"
   version="1.1"
   id="svg892"
   sodipodi:docname="street_artmark.svg"
   inkscape:version="1.1.2 (0a00cf5339, 2022-02-04)"
   xmlns:inkscape="http://www.inkscape.org/namespaces/inkscape"
   xmlns:sodipodi="http://sodipodi.sourceforge.net/DTD/sodipodi-0.dtd"
   xmlns="http://www.w3.org/2000/svg"
   xmlns:svg="http://www.w3.org/2000/svg">
  <defs
     id="defs896" />
  <sodipodi:namedview
     id="namedview894"
     pagecolor="#ffffff"
     bordercolor="#666666"
     borderopacity="1.0"
     inkscape:pageshadow="2"
     inkscape:pageopacity="0.0"
     inkscape:pagecheckerboard="0"
     showgrid="false"
     inkscape:zoom="24.042936"
     inkscape:cx="10.252492"
     inkscape:cy="9.0463161"
     inkscape:window-width="1850"
     inkscape:window-height="1016"
     inkscape:window-x="0"
     inkscape:window-y="0"
     inkscape:window-maximized="1"
     inkscape:current-layer="svg892"
     inkscape:object-paths="true"
     inkscape:snap-midpoints="true"
     inkscape:snap-smooth-nodes="true"
     fit-margin-top="0"
     fit-margin-left="0"
     fit-margin-right="0"
     fit-margin-bottom="0" />
  <g
     id="g1843">
    <path
       id="path1180"
       style="fill:#fffafa;stroke:#808080;stroke-width:1;stroke-miterlimit:4;stroke-dasharray:none;stroke-opacity:1;stop-color:#000000"
       inkscape:transform-center-x="2.5164787"
       inkscape:transform-center-y="-0.40667357"
       d="M 9.1875,0.5 A 8.6878052,8.6878052 0 0 0 0.50000002,9.1875 8.6878052,8.6878052 0 0 0 1.3730469,12.958984 H 1.3613281 L 9.1875,28.519531 17.013672,12.958984 h -0.01172 A 8.6878052,8.6878052 0 0 0 17.875,9.1875 8.6878052,8.6878052 0 0 0 9.1875,0.5 Z" />
    <g
       id="g1041"
       transform="translate(2.6664997,2.5134338)">
      <g
         id="g1034"
         transform="matrix(0.96527611,0,0,0.96384338,0.22398563,0.23648957)">
        <path
           style="font-variation-settings:normal;fill:#808080;fill-opacity:1;stroke:#808080;stroke-width:0.542;stroke-linecap:butt;stroke-linejoin:miter;stroke-miterlimit:4;stroke-dasharray:none;stroke-dashoffset:0;stroke-opacity:1;paint-order:markers fill stroke;stop-color:#000000"
           d="M 5.9174203,12.938077 C 4.5995941,12.813615 3.3347507,12.281529 2.303773,11.417912 1.139272,10.442448 0.351458,9.065258 0.092235,7.551893 0.019065,7.1247085 0.010065,6.9419043 0.029825,6.2833288 0.061015,5.24345 0.203395,4.636102 0.623901,3.749256 0.977371,3.003788 1.326662,2.511856 1.926094,1.915285 2.9033866,0.942656 4.0263104,0.349545 5.360809,0.10112 c 0.6174242,-0.114937 1.7572575,-0.104496 2.349963,0.02153 2.49423,0.53033 4.436722,2.37939 5.055061,4.81192 0.214606,0.8442514 0.238631,1.9778646 0.05988,2.825287 -0.453049,2.147795 -1.938042,3.923847 -3.960216,4.736419 -0.918553,0.369103 -2.0007125,0.531278 -2.9480697,0.441804 z M 7.579772,12.06592 C 9.932063,11.586553 11.693043,9.772168 12.10222,7.4063197 12.19342,6.8789894 12.16246,5.7596751 12.0424,5.243522 11.527533,3.030103 9.825727,1.371942 7.571819,0.887596 7.1416626,0.795156 5.8817882,0.785265 5.4439885,0.870886 4.2914574,1.096289 3.2854788,1.635042 2.448525,2.47511 1.78368,3.142429 1.328024,3.881112 1.054443,4.735117 c -0.359866,1.1233481 -0.352326,2.4532111 0.0202,3.562949 0.69873,2.081481 2.5310886,3.576039 4.7164402,3.846951 0.4605407,0.05709 1.3032647,0.01983 1.7886878,-0.0791 z"
           id="path7105-6" />
        <path
           style="font-variation-settings:normal;fill:#808080;fill-opacity:1;stroke:#808080;stroke-width:0.542;stroke-linecap:butt;stroke-linejoin:miter;stroke-miterlimit:4;stroke-dasharray:none;stroke-dashoffset:0;stroke-opacity:1;paint-order:markers fill stroke;stop-color:#000000"
           d="M 8.480223,6.3223854 C 8.299836,6.2694364 8.060844,6.0572881 7.929085,5.8331499 7.8248,5.6557497 7.814747,5.6018077 7.814747,5.219631 c 0,-0.393222 0.0077,-0.431381 0.124777,-0.619835 0.361673,-0.582078 0.949799,-0.677214 1.40047,-0.226543 0.441083,0.441083 0.4415,1.2463724 8.81e-4,1.7005768 C 9.083152,6.3394985 8.808626,6.4187813 8.480223,6.3223854 Z"
           id="path7144-7" />
        <path
           style="font-variation-settings:normal;fill:#808080;fill-opacity:1;stroke:#808080;stroke-width:0.542;stroke-linecap:butt;stroke-linejoin:miter;stroke-miterlimit:4;stroke-dasharray:none;stroke-dashoffset:0;stroke-opacity:1;paint-order:markers fill stroke;stop-color:#000000"
           d="M 3.9514702,6.3052769 C 3.7449501,6.2316699 3.4963829,5.9889975 3.3782912,5.7456922 3.2455409,5.4721857 3.2452,4.966649 3.3775833,4.695815 c 0.1648,-0.337154 0.5450954,-0.616412 0.8394335,-0.616412 0.2951035,0 0.6725932,0.277606 0.8361694,0.614919 0.1353646,0.279137 0.1369196,0.7818788 0.00326,1.0553157 C 4.8860701,6.0982078 4.5052623,6.3703763 4.1962207,6.3644557 4.1504697,6.3635792 4.0403315,6.3369487 3.9514702,6.3052769 Z"
           id="path7183-5" />
        <path
           style="font-variation-settings:normal;fill:#808080;fill-opacity:1;stroke:#808080;stroke-width:0.542;stroke-linecap:butt;stroke-linejoin:miter;stroke-miterlimit:4;stroke-dasharray:none;stroke-dashoffset:0;stroke-opacity:1;paint-order:markers fill stroke;stop-color:#000000"
           d="M 5.9430956,10.103904 C 4.603815,9.933785 3.4604722,9.1678 2.9426767,8.093765 2.719388,7.63061 2.7766705,7.281543 3.0759641,7.281543 c 0.1613836,0 0.2565361,0.064324 0.6420203,0.434013 0.8612124,0.825924 1.6345567,1.146493 2.7658106,1.146493 1.101192,0 1.836895,-0.297806 2.654777,-1.074629 0.4644,-0.4410868 0.635181,-0.5424094 0.810387,-0.480793 0.419959,0.1476918 0.177501,0.875075 -0.53291,1.598746 -0.697197,0.710211 -1.45253,1.080647 -2.4528521,1.202946 -0.4010954,0.04904 -0.6062776,0.04815 -1.0201013,-0.0044 z"
           id="path7222-3" />
      </g>
    </g>
  </g>
</svg>
