<?xml version="1.0" encoding="UTF-8" standalone="no"?>
<svg
   width="75.590561"
   height="75.590561"
   viewBox="0 0 75.590563 75.59056"
   version="1.1"
   id="svg892"
   sodipodi:docname="crib.svg"
   inkscape:version="1.1.2 (0a00cf5339, 2022-02-04)"
   xmlns:inkscape="http://www.inkscape.org/namespaces/inkscape"
   xmlns:sodipodi="http://sodipodi.sourceforge.net/DTD/sodipodi-0.dtd"
   xmlns="http://www.w3.org/2000/svg"
   xmlns:svg="http://www.w3.org/2000/svg">
  <defs
     id="defs896" />
  <sodipodi:namedview
     id="namedview894"
     pagecolor="#ffffff"
     bordercolor="#666666"
     borderopacity="1.0"
     inkscape:pageshadow="2"
     inkscape:pageopacity="0.0"
     inkscape:pagecheckerboard="0"
     showgrid="false"
     inkscape:zoom="5.7860792"
     inkscape:cx="-18.060589"
     inkscape:cy="40.528308"
     inkscape:window-width="1850"
     inkscape:window-height="1016"
     inkscape:window-x="0"
     inkscape:window-y="0"
     inkscape:window-maximized="1"
     inkscape:current-layer="svg892"
     inkscape:object-paths="true"
     inkscape:snap-midpoints="true"
     inkscape:snap-smooth-nodes="true"
     fit-margin-top="0"
     fit-margin-left="0"
     fit-margin-right="0"
     fit-margin-bottom="0"
     showguides="false"
     inkscape:snap-global="true" />
  <circle
     style="fill:#ffffff;stroke:#006400;stroke-width:4.21799;stroke-miterlimit:4;stroke-dasharray:none;paint-order:markers fill stroke"
     id="path8994"
     cx="37.79528"
     cy="37.79528"
     r="35.686287" />
  <path
     id="path966"
     style="fill:#ff0000;stroke:#ff0000;stroke-width:0.492691;paint-order:markers fill stroke"
     d="m 29.531593,32.754494 c -2.332541,0.03074 -4.20272,2.06492 -4.183216,4.550043 0.01475,1.568691 0.793161,3.016653 2.055715,3.823983 0,0 -3.16711,-0.322031 -4.123768,0.562929 -4.942705,4.572265 -4.199779,20.166039 -4.199779,20.166039 h 9.819885 c 0,0 -1.04507,-6.294031 2.177889,-15.546386 0.518945,-1.489769 -2.177889,-4.597562 -2.177889,-4.597562 0.231561,0.04286 0.466062,0.06512 0.701088,0.06655 2.332894,-0.01004 4.218991,-2.027877 4.218643,-4.513293 l -9.55e-4,-0.07449 C 33.780686,34.707643 31.863914,32.723725 29.531569,32.7545 Z"
     sodipodi:nodetypes="cccsccsccccc" />
  <path
     id="path966-3"
     style="fill:#ff0000;stroke:#ff0000;stroke-width:0.492691;paint-order:markers fill stroke"
     d="m 46.036049,32.954136 c -2.332541,0.0302 -4.20314,2.063928 -4.184151,4.54905 0.01914,2.485006 1.920557,4.485832 4.25314,4.47555 0.336011,-0.0051 0.670258,-0.05278 0.995692,-0.142034 0,0 -3.151852,2.449622 -2.338643,5.008645 2.581252,8.122745 2.338643,14.966451 2.338643,14.966451 h 9.66419 c 0,0 0.03358,-7.799628 -0.843361,-11.544737 -1.168876,-4.99186 -1.945306,-9.968442 -5.245195,-14.443796 -1.104765,-1.498296 -2.769249,-2.893141 -4.640315,-2.869129 z"
     sodipodi:nodetypes="ccccsccssc" />
  <path
     id="rect1159"
     style="fill:#ff0000;stroke:#ff0000;stroke-width:0.492691;paint-order:markers fill stroke"
     d="m 31.46593,54.741275 h 12.657653 l -2.33382,7.165149 h -8.011937 z"
     sodipodi:nodetypes="ccccc" />
  <path
     style="fill:#ff0000;stroke:#ff0000;paint-order:markers fill stroke"
     id="path1183"
     sodipodi:type="arc"
     sodipodi:cx="-37.902424"
     sodipodi:cy="-53.551659"
     sodipodi:rx="3.5156438"
     sodipodi:ry="3.745466"
     sodipodi:start="0"
     sodipodi:end="3.1415927"
     sodipodi:arc-type="slice"
     transform="scale(-1)"
     d="m -34.38678,-53.551659 a 3.5156438,3.745466 0 0 1 -1.757822,3.243669 3.5156438,3.745466 0 0 1 -3.515644,0 3.5156438,3.745466 0 0 1 -1.757822,-3.243669 h 3.515644 z" />
  <path
     style="fill:none;stroke:#ff0000;stroke-width:3.77953;stroke-miterlimit:4;stroke-dasharray:none;paint-order:markers fill stroke"
     id="path1695"
     sodipodi:type="arc"
     sodipodi:cx="-37.79528"
     sodipodi:cy="-50.630733"
     sodipodi:rx="25.488729"
     sodipodi:ry="27.154961"
     sodipodi:start="0.26179939"
     sodipodi:end="2.8797933"
     sodipodi:open="true"
     sodipodi:arc-type="arc"
     transform="scale(-1)"
     d="m -13.175058,-43.602512 a 25.488729,27.154961 0 0 1 -24.620222,20.126739 25.488729,27.154961 0 0 1 -24.620223,-20.12674" />
  <path
     sodipodi:type="star"
     style="fill:#ff0000;stroke:none;stroke-width:3.77953;stroke-miterlimit:4;stroke-dasharray:none;paint-order:markers fill stroke"
     id="path2566"
     inkscape:flatsided="false"
     sodipodi:sides="4"
     sodipodi:cx="-118.32267"
     sodipodi:cy="-18.911282"
     sodipodi:r1="11.770127"
     sodipodi:r2="5.8850636"
     sodipodi:arg1="0"
     sodipodi:arg2="0.78539816"
     inkscape:rounded="0"
     inkscape:randomized="0"
     transform="matrix(0.66729938,0,0,0.71092157,116.75193,26.138796)"
     d="m -106.55254,-18.911282 -7.60876,4.161369 -4.16137,7.6087587 -4.16137,-7.6087587 -7.60876,-4.161369 7.60876,-4.161368 4.16137,-7.608759 4.16137,7.608759 z" />
</svg>
