<?xml version="1.0" encoding="UTF-8" standalone="no"?>
<svg
   width="75.590561"
   height="75.590561"
   viewBox="0 0 75.590556 75.590571"
   version="1.1"
   id="svg892"
   sodipodi:docname="ice_rink.svg"
   inkscape:version="1.1.2 (0a00cf5339, 2022-02-04)"
   xmlns:inkscape="http://www.inkscape.org/namespaces/inkscape"
   xmlns:sodipodi="http://sodipodi.sourceforge.net/DTD/sodipodi-0.dtd"
   xmlns="http://www.w3.org/2000/svg"
   xmlns:svg="http://www.w3.org/2000/svg">
  <defs
     id="defs896" />
  <sodipodi:namedview
     id="namedview894"
     pagecolor="#ffffff"
     bordercolor="#666666"
     borderopacity="1.0"
     inkscape:pageshadow="2"
     inkscape:pageopacity="0.0"
     inkscape:pagecheckerboard="0"
     showgrid="false"
     inkscape:zoom="6.419643"
     inkscape:cx="-7.5549372"
     inkscape:cy="51.482614"
     inkscape:window-width="1850"
     inkscape:window-height="1016"
     inkscape:window-x="0"
     inkscape:window-y="0"
     inkscape:window-maximized="1"
     inkscape:current-layer="svg892"
     inkscape:object-paths="true"
     inkscape:snap-midpoints="true"
     inkscape:snap-smooth-nodes="true"
     fit-margin-top="0"
     fit-margin-left="0"
     fit-margin-right="0"
     fit-margin-bottom="0"
     inkscape:snap-global="false"
     showguides="false" />
  <path
     stroke="none"
     d="M 81.992768,77.258645 H 105.99277 V 101.25864 H 81.992768 Z"
     fill="none"
     id="path867"
     style="stroke-width:2;stroke-linecap:round;stroke-linejoin:round" />
  <circle
     style="fill:#ffffff;stroke:#006400;stroke-width:4.21799;stroke-miterlimit:4;stroke-dasharray:none;paint-order:markers fill stroke"
     id="path8994"
     cx="37.79528"
     cy="37.795284"
     r="35.686287" />
  <g
     id="g1068"
     style="fill:#ff0000">
    <path
       style="fill:#ff0000;stroke-width:0.515139"
       d="m 50.391729,20.21987 c 2.434525,-0.652329 3.888816,-3.082917 3.260831,-5.426583 -0.629031,-2.347581 -3.10273,-3.721473 -5.537251,-3.069145 -2.422887,0.649211 -3.87418,3.0748 -3.245145,5.422381 0.627981,2.343666 3.098678,3.722558 5.521565,3.073347 z"
       id="path1719" />
    <path
       style="fill:#ff0000;stroke-width:0.515139"
       d="m 38.706219,62.369852 h 11.73989 c 0,0 0.879935,0.08716 0.879939,-0.807598 l 2e-5,-0.898283 h 1.738933 c 0,0 0.397011,3.075362 -1.968347,3.364656 H 38.706239 Z"
       id="path1721" />
    <path
       style="fill:#ff0000;stroke-width:0.515139"
       d="m 16.938187,55.136184 10.101135,5.603928 c 0,0 0.708421,0.494678 1.180964,-0.287587 l 0.471495,-0.786185 1.485169,0.831529 c 0,0 -1.267129,2.876113 -3.453648,2.003296 L 16.075834,56.580467 Z"
       id="path1723" />
    <path
       style="fill:#ff0000;stroke-width:0.515139"
       d="m 41.018991,49.694373 2.958981,9.55122 c 0.38722,1.445155 1.911485,2.29506 3.405488,1.894744 1.371567,-0.367518 2.297941,-2.254863 2.005914,-3.344726 l -2.86651,-10.697957 c -4.137492,-9.881854 -0.0671,0.02278 -4.125715,-9.869129 l 6.381222,-10.634576 c 1.092963,-2.38675 -0.387468,-4.497806 -0.387468,-4.497806 -1.585986,-2.361295 -4.656792,-1.632889 -4.656792,-1.632889 l -22.191576,5.937823 c -1.177799,0.315591 -1.894129,1.499401 -1.586891,2.646031 0.309337,1.154459 1.520553,1.817589 2.698353,1.501998 L 37.980152,26.467128 33.194276,34.4083 c -0.675967,1.160407 -0.870844,2.315168 -0.511284,3.657062 0.346315,1.292466 3.096489,3.579815 4.204277,4.188832 z"
       id="path1725"
       sodipodi:nodetypes="ccssccccccscccscc" />
  </g>
  <path
     style="fill:#ff0000;stroke-width:0.515139"
     d="m 32.066168,40.087611 -8.533441,14.378018 c -0.767585,1.008718 -0.728295,2.420166 0.148601,3.369571 1.007977,1.090526 2.755021,1.15899 3.889208,0.158541 0.153433,-0.139717 0.286744,-0.289785 0.409319,-0.449565 l 8.009693,-14.113052 c -1.183627,-1.222118 -2.672358,-2.317132 -3.92338,-3.343513 z"
     id="path1727"
     sodipodi:nodetypes="ccccccc" />
</svg>
