<?xml version="1.0" encoding="UTF-8" standalone="no"?>
<svg
   width="18.274336"
   height="29.52647"
   viewBox="0 0 18.274336 29.52647"
   version="1.1"
   id="svg6"
   sodipodi:docname="floodmarksmark.svg"
   inkscape:version="1.1.2 (0a00cf5339, 2022-02-04)"
   xmlns:inkscape="http://www.inkscape.org/namespaces/inkscape"
   xmlns:sodipodi="http://sodipodi.sourceforge.net/DTD/sodipodi-0.dtd"
   xmlns="http://www.w3.org/2000/svg"
   xmlns:svg="http://www.w3.org/2000/svg">
  <defs
     id="defs10" />
  <sodipodi:namedview
     id="namedview8"
     pagecolor="#ffffff"
     bordercolor="#666666"
     borderopacity="1.0"
     inkscape:pageshadow="2"
     inkscape:pageopacity="0.0"
     inkscape:pagecheckerboard="0"
     showgrid="false"
     inkscape:zoom="18.157492"
     inkscape:cx="-11.235032"
     inkscape:cy="12.419116"
     inkscape:window-width="1846"
     inkscape:window-height="1016"
     inkscape:window-x="0"
     inkscape:window-y="0"
     inkscape:window-maximized="1"
     inkscape:current-layer="svg6"
     fit-margin-top="0"
     fit-margin-left="0"
     fit-margin-right="0"
     fit-margin-bottom="0" />
  <g
     id="g838"
     transform="translate(2.6371676,3.7259659)">
    <path
       id="path1273"
       style="fill:#fffafa;stroke:#8b4513;stroke-width:1;stroke-miterlimit:4;stroke-dasharray:none;stop-color:#000000"
       d="m 15.137169,5.0980711 c 0,4.597238 -8.6371681,19.6954949 -8.6371681,19.6954949 0,0 -8.6371675,-15.0982569 -8.6371685,-19.6954949 1e-6,-4.5972385 3.8669921,-8.324037 8.6371685,-8.324037 4.7701761,0 8.6371681,3.7267985 8.6371681,8.324037 z"
       sodipodi:nodetypes="scsss" />
    <g
       id="g831">
      <path
         d="m 1.7500004,5.0548096 c 0.5075072,0 1.4480818,1.5999016 1.9001495,1.5999016 0.4235808,0 1.4211423,-1.5999016 1.9001492,-1.5999016 0.4790072,0 1.4773965,1.5999016 1.9001496,1.5999016 0.5082944,0 1.4448925,-1.5999016 1.8994026,-1.5999016 0.5075082,-0.023199 1.5058967,1.5999016 1.9001497,1.5999016 v 2.399853 c -0.478206,0 -1.4488958,-1.5999022 -1.9001497,-1.5999022 -0.4504998,0 -1.421142,1.5999022 -1.8994026,1.5999022 -0.4544563,0 -1.4211424,-1.5999022 -1.9001496,-1.5999022 -0.4821691,0 -1.4480817,1.5999022 -1.9001493,1.5999022 -0.5067133,0 -1.420396,-1.5999022 -1.9001494,-1.5999022 z"
         id="path4"
         style="fill:#8b4513;stroke-width:0.736768" />
      <rect
         style="fill:#8b4513;stroke:none;stroke-width:0.130413px;-inkscape-stroke:none;stop-color:#000000"
         id="rect872"
         width="9.5"
         height="1"
         x="1.7500005"
         y="2.7654312" />
      <path
         d="M 2,0.5 C 1.1715729,0.5 0.5,1.1715728 0.5,1.9999999 v 7.0000003 c 2e-7,0.828427 0.671573,1.4999988 1.5,1.4999988 h 9.000001 c 0.828427,0 1.5,-0.6715718 1.5,-1.4999988 V 1.9999999 C 12.500001,1.1715728 11.828428,0.5 11.000001,0.5 Z"
         id="path825"
         style="fill:none;stroke:#8b4513"
         sodipodi:nodetypes="sssssssss" />
    </g>
  </g>
</svg>
