<?xml version="1.0" encoding="UTF-8" standalone="no"?>
<svg
   width="18.274338"
   height="29.526472"
   viewBox="0 0 18.274338 29.526472"
   version="1.1"
   id="svg1087"
   sodipodi:docname="fountainmark.svg"
   inkscape:version="1.2.2 (732a01da63, 2022-12-09, custom)"
   xmlns:inkscape="http://www.inkscape.org/namespaces/inkscape"
   xmlns:sodipodi="http://sodipodi.sourceforge.net/DTD/sodipodi-0.dtd"
   xmlns="http://www.w3.org/2000/svg"
   xmlns:svg="http://www.w3.org/2000/svg">
  <defs
     id="defs1091" />
  <sodipodi:namedview
     id="namedview1089"
     pagecolor="#ffffff"
     bordercolor="#666666"
     borderopacity="1.0"
     inkscape:pageshadow="2"
     inkscape:pageopacity="0.0"
     inkscape:pagecheckerboard="0"
     showgrid="false"
     inkscape:zoom="25.908954"
     inkscape:cx="0.73333721"
     inkscape:cy="14.801833"
     inkscape:window-width="1846"
     inkscape:window-height="1016"
     inkscape:window-x="0"
     inkscape:window-y="0"
     inkscape:window-maximized="1"
     inkscape:current-layer="svg1087"
     fit-margin-top="0"
     fit-margin-left="0"
     fit-margin-right="0"
     fit-margin-bottom="0"
     inkscape:showpageshadow="2"
     inkscape:deskcolor="#d1d1d1" />
  <g
     id="g2908">
    <path
       id="path1273"
       style="fill:#fffafa;stroke:#0045ff;stroke-width:1;stroke-miterlimit:4;stroke-dasharray:none;stop-color:#000000;stroke-opacity:1"
       d="m 17.774338,8.8240366 c 0,4.5972384 -8.6371691,19.6954964 -8.6371691,19.6954964 0,0 -8.6371679,-15.098258 -8.6371689,-19.6954964 C 0.500001,4.2267981 4.366992,0.5 9.1371689,0.5 c 4.7701771,0 8.6371691,3.7267981 8.6371691,8.3240366 z"
       sodipodi:nodetypes="scsss" />
    <path
       d="m 2.975077,13.620302 h 12.324184 c -0.880298,1.760598 -4.401494,2.640897 -6.1620909,2.640897 -1.7605984,0 -5.0163991,-0.880299 -6.1620931,-2.640897 z m 7.92269,-9.6296462 c -0.880299,0 -1.4746356,0.9111941 -1.7709136,1.5965857 C 8.8296941,4.8683817 8.2568704,3.9504244 7.3765717,3.9504244 c -1.320771,0 -1.7605975,1.6935457 -1.7605975,2.5738448 0,0.8802989 0.8802987,0.5938905 0.8802987,0.026821 C 7.3765717,4.7904919 8.2568704,5.1302841 8.4700685,7.9135001 V 8.2212615 C 8.1329157,8.0547001 7.7552716,7.9496064 7.3765717,7.9496064 c -1.2914483,0 -2.4208216,0.9088889 -2.4208216,2.6408976 v 0.880299 c 0,0.880298 1.3204481,0.880298 1.3204481,0 v -0.880299 c 0,-0.8503341 0.6012577,-1.320449 1.1003735,-1.320449 0.4837,0 1.058154,0.4719969 1.0934968,1.248235 v 0.03611 2.185607 c 0.6671016,-0.50897 0.6671016,-0.523067 1.3070217,0 l 0.020301,-2.149504 v -0.110038 c 0.036139,-0.7751935 0.6101598,-1.2465172 1.0934968,-1.2465172 0.499116,0 1.100374,0.4701159 1.100374,1.3204482 v 0.880299 c 0,0.880299 1.320449,0.880299 1.320449,0 v -0.8803 c 0,-1.7320069 -1.129374,-2.6408965 -2.420823,-2.6408965 -0.378899,4.4e-6 -0.75621,0.1066658 -1.0934968,0.2733782 0,-0.079087 -0.014699,-0.1595573 0,-0.2372675 0.2200748,-2.4157238 1.1003738,-3.1322937 1.9806728,-1.3716958 0,0.4645756 0.880299,0.8132469 0.880299,-0.067053 0,-0.8802991 -0.439827,-2.520203 -1.760598,-2.5202028 z"
       id="path25"
       style="fill:#0045ff;fill-opacity:1;stroke-width:0.880299" />
  </g>
</svg>
