<?xml version="1.0" encoding="UTF-8" standalone="no"?>
<svg
   width="18.274336"
   height="29.52647"
   viewBox="0 0 18.274336 29.52647"
   version="1.1"
   id="svg1022"
   sodipodi:docname="memorialsmark.svg"
   inkscape:version="1.1.2 (0a00cf5339, 2022-02-04)"
   xmlns:inkscape="http://www.inkscape.org/namespaces/inkscape"
   xmlns:sodipodi="http://sodipodi.sourceforge.net/DTD/sodipodi-0.dtd"
   xmlns="http://www.w3.org/2000/svg"
   xmlns:svg="http://www.w3.org/2000/svg">
  <defs
     id="defs1026" />
  <sodipodi:namedview
     id="namedview1024"
     pagecolor="#ffffff"
     bordercolor="#666666"
     borderopacity="1.0"
     inkscape:pageshadow="2"
     inkscape:pageopacity="0.0"
     inkscape:pagecheckerboard="0"
     showgrid="false"
     inkscape:zoom="12.839286"
     inkscape:cx="-27.649513"
     inkscape:cy="10.397775"
     inkscape:window-width="1846"
     inkscape:window-height="1016"
     inkscape:window-x="0"
     inkscape:window-y="0"
     inkscape:window-maximized="1"
     inkscape:current-layer="svg1022"
     fit-margin-top="0"
     fit-margin-left="0"
     fit-margin-right="0"
     fit-margin-bottom="0" />
  <g
     id="g829"
     transform="translate(1.0534588,0.34581515)">
    <path
       id="path1273"
       style="fill:#fffafa;stroke:#8b4513;stroke-width:1;stroke-miterlimit:4;stroke-dasharray:none;stop-color:#000000"
       d="m 16.720878,8.4782215 c 0,4.5972375 -8.6371679,19.6954955 -8.6371679,19.6954955 0,0 -8.63716785,-15.098258 -8.63716885,-19.6954955 1e-6,-4.5972385 3.86699195,-8.32403665 8.63716885,-8.32403665 4.7701759,0 8.6371679,3.72679815 8.6371679,8.32403665 z"
       sodipodi:nodetypes="scsss" />
    <path
       d="m 6.279591,2.9041819 c -0.9020594,0 -1.8041188,0.9020595 -1.8041188,1.8041189 V 11.924776 H 11.691947 V 4.7083008 c 0,-0.9020594 -0.902059,-1.8041189 -1.8041183,-1.8041189 z M 7.1816504,4.7083008 H 8.9857693 V 5.6103602 H 7.1816504 Z M 5.3775316,6.5124196 H 10.789888 V 7.4144791 H 5.3775316 Z M 6.279591,8.3165385 H 9.8878287 V 9.2185979 H 6.279591 Z m -2.7061783,4.5102965 -0.9020594,0.90206 v 0.902059 H 13.496066 v -0.902059 l -0.902059,-0.90206 z"
       id="path1020"
       style="fill:#8b4513;stroke-width:0.902059" />
  </g>
</svg>
