<?xml version="1.0" encoding="UTF-8" standalone="no"?>
<svg
   xmlns:dc="http://purl.org/dc/elements/1.1/"
   xmlns:cc="http://creativecommons.org/ns#"
   xmlns:rdf="http://www.w3.org/1999/02/22-rdf-syntax-ns#"
   xmlns:svg="http://www.w3.org/2000/svg"
   xmlns="http://www.w3.org/2000/svg"
   xmlns:sodipodi="http://sodipodi.sourceforge.net/DTD/sodipodi-0.dtd"
   xmlns:inkscape="http://www.inkscape.org/namespaces/inkscape"
   viewBox="0 0 448 512"
   version="1.1"
   id="svg4"
   sodipodi:docname="oil.svg"
   inkscape:version="0.92.5 (2060ec1f9f, 2020-04-08)"
   width="448"
   height="512">
  <metadata
     id="metadata10">
    <rdf:RDF>
      <cc:Work
         rdf:about="">
        <dc:format>image/svg+xml</dc:format>
        <dc:type
           rdf:resource="http://purl.org/dc/dcmitype/StillImage" />
        <dc:title></dc:title>
      </cc:Work>
    </rdf:RDF>
  </metadata>
  <defs
     id="defs8" />
  <sodipodi:namedview
     pagecolor="#ffffff"
     bordercolor="#666666"
     borderopacity="1"
     objecttolerance="10"
     gridtolerance="10"
     guidetolerance="10"
     inkscape:pageopacity="0"
     inkscape:pageshadow="2"
     inkscape:window-width="1848"
     inkscape:window-height="1016"
     id="namedview6"
     showgrid="false"
     inkscape:zoom="1.2361301"
     inkscape:cx="264.05931"
     inkscape:cy="262.45808"
     inkscape:window-x="72"
     inkscape:window-y="27"
     inkscape:window-maximized="1"
     inkscape:current-layer="svg4"
     fit-margin-top="0"
     fit-margin-left="0"
     fit-margin-right="0"
     fit-margin-bottom="0" />
  <path
     d="M 412.98562,140.42432 331.89032,204.8 296.41862,164.416 c -6.24345,-7.10696 -28.92356,-10.80982 -35.90345,-10.81599 H 230.41998 V 76.800009 h 39.34273 c 6.21053,0 11.24078,-11.455999 11.24078,-25.599999 v -25.6 c 0,-14.144 -5.03025,-25.6 -11.24078,-25.6 H 157.3549 c -6.21054,0 -11.24079,11.456 -11.24079,25.6 v 25.6 c 0,14.144 5.03025,25.599999 11.24079,25.599999 h 39.34273 v 76.800001 h -59.2271 l -110.970387,-40.224 c -1.341758,-0.56408 -2.703331,-0.84792 -4.067758,-0.848 C 10.306392,112.52801 0,134.976 0,163.74401 V 315.664 c 0,24.736 7.7701905,45.95201 18.462984,50.36801 l 62.803637,20.304 v 74.464 c 0,28.272 10.067526,51.2 22.481559,51.2 h 218.74905 c 6.0068,0 11.7677,-5.472 15.99002,-15.216 l 0.63632,-217.80716 79.37706,-88.26453 c 1.05382,-2.39999 1.64396,-5.664 1.64396,-9.056 v -28.92799 c 0.007,-8.496 -3.56895,-14.64 -7.15897,-12.30401 z M 81.266621,308.272 33.722346,294.30401 V 194.416 l 47.544275,13.96801 z M 370.247,397.3114 c 0,37.69599 22.31742,55.43337 38.8765,55.43337 16.55907,0 38.8765,-17.72138 38.8765,-55.43337 0,-37.71201 -38.8765,-95.03888 -38.8765,-95.03888 0,0 -38.8765,57.34287 -38.8765,95.03888 z"
     id="path2"
     style="fill:#ff4500;stroke-width:1.06022561"
     inkscape:connector-curvature="0"
     sodipodi:nodetypes="ccccccsssssssscccccssccssscccscccccccssscs" />
</svg>
