<?xml version="1.0" encoding="UTF-8" standalone="no"?>
<svg
   xmlns:dc="http://purl.org/dc/elements/1.1/"
   xmlns:cc="http://creativecommons.org/ns#"
   xmlns:rdf="http://www.w3.org/1999/02/22-rdf-syntax-ns#"
   xmlns:svg="http://www.w3.org/2000/svg"
   xmlns="http://www.w3.org/2000/svg"
   xmlns:sodipodi="http://sodipodi.sourceforge.net/DTD/sodipodi-0.dtd"
   xmlns:inkscape="http://www.inkscape.org/namespaces/inkscape"
   id="Nederlands_verkeersbord_E6"
   width="200"
   height="200"
   viewBox="0 0 200 200"
   version="1.1"
   sodipodi:docname="Nederlands_verkeersbord_E6.svg"
   inkscape:version="0.92.5 (2060ec1f9f, 2020-04-08)">
  <metadata
     id="metadata4608">
    <rdf:RDF>
      <cc:Work
         rdf:about="">
        <dc:format>image/svg+xml</dc:format>
        <dc:type
           rdf:resource="http://purl.org/dc/dcmitype/StillImage" />
        <dc:title></dc:title>
      </cc:Work>
    </rdf:RDF>
  </metadata>
  <defs
     id="defs4606" />
  <sodipodi:namedview
     pagecolor="#ffffff"
     bordercolor="#666666"
     borderopacity="1"
     objecttolerance="10"
     gridtolerance="10"
     guidetolerance="10"
     inkscape:pageopacity="0"
     inkscape:pageshadow="2"
     inkscape:window-width="1848"
     inkscape:window-height="1016"
     id="namedview4604"
     showgrid="false"
     fit-margin-top="0"
     fit-margin-left="0"
     fit-margin-right="0"
     fit-margin-bottom="0"
     inkscape:zoom="2.7266667"
     inkscape:cx="101.28362"
     inkscape:cy="101.59283"
     inkscape:window-x="72"
     inkscape:window-y="27"
     inkscape:window-maximized="1"
     inkscape:current-layer="Nederlands_verkeersbord_E6" />
  <rect
     id="blauw_vlak"
     width="200"
     height="200"
     x="0"
     y="0"
     style="fill:#0e518d;stroke-width:0.81649661" />
  <path
     id="witte_bies"
     style="fill:none;stroke:#f7fbf5;stroke-width:5.45230293"
     d="m 176.15042,192.72817 c 9.0188,0 16.35615,-4.61582 16.35615,-10.30136 V 17.54083 c 0,-5.68018 -7.33735,-10.30136 -16.35615,-10.30136 H 23.815811 c -9.018801,0 -16.3476621,4.62118 -16.3476621,10.30136 v 164.88598 c 0,5.68554 7.3288611,10.30136 16.3476621,10.30136 H 176.15042"
     inkscape:connector-curvature="0" />
  <path
     id="letter_P"
     d="M 43.772826,140.88064 H 22.262951 V 20.20721 h 49.172833 c 23.365458,0 36.822106,15.5575 36.822106,36.06282 0,17.72129 -11.192839,36.82735 -36.740463,36.82735 H 43.772826 Z M 64.97095,73.32053 c 19.424206,0 23.335757,-9.15996 23.335757,-16.43022 0,-7.77515 -3.13222,-16.98559 -23.335757,-16.98559 H 43.513049 V 73.32053 H 64.97095"
     inkscape:connector-curvature="0"
     style="fill:#f7fbf5;stroke-width:0.88185614" />
  <path
     id="gehandicapte"
     d="m 122.14317,99.51975 c 5.37686,0 9.71482,-4.21536 9.71482,-9.40487 0,-5.22491 -4.33796,-9.44913 -9.71482,-9.44913 -5.37688,0 -9.72394,4.22422 -9.72394,9.44913 0,5.18951 4.34706,9.40487 9.72394,9.40487 z m 30.11047,43.65911 16.70477,35.2815 14.16212,-6.26106 -3.06209,-6.571 -7.50939,3.46264 -15.83898,-33.20926 h -33.53709 v -8.2359 h 24.88853 v -7.64255 H 123.17298 V 96.5442 h -8.18378 v 46.63466 z m 7.16309,22.93652 c -5.20371,12.1413 -17.47939,20.68716 -31.83291,20.68716 -19.0013,0 -34.421071,-14.98404 -34.421071,-33.45721 0,-12.69037 7.509391,-24.35346 18.263121,-30.02119 v 8.85582 l -0.1458,-0.0354 c -6.61629,4.84414 -10.92689,12.52212 -10.92689,21.20081 0,14.60321 12.17542,26.46998 27.23064,26.46998 14.09836,0 25.67228,-10.41442 27.09398,-23.73354 l 4.73893,10.03361"
     inkscape:connector-curvature="0"
     style="fill:#f7fbf5;stroke-width:1.08276939" />
</svg>
