<?xml version="1.0" encoding="UTF-8" standalone="no"?>
<svg
   width="18.274338"
   height="29.52647"
   viewBox="0 0 18.274338 29.52647"
   version="1.1"
   id="svg827"
   sodipodi:docname="plaquesmark.svg"
   inkscape:version="1.1.2 (0a00cf5339, 2022-02-04)"
   xmlns:inkscape="http://www.inkscape.org/namespaces/inkscape"
   xmlns:sodipodi="http://sodipodi.sourceforge.net/DTD/sodipodi-0.dtd"
   xmlns="http://www.w3.org/2000/svg"
   xmlns:svg="http://www.w3.org/2000/svg">
  <defs
     id="defs831" />
  <sodipodi:namedview
     id="namedview829"
     pagecolor="#ffffff"
     bordercolor="#666666"
     borderopacity="1.0"
     inkscape:pageshadow="2"
     inkscape:pageopacity="0.0"
     inkscape:pagecheckerboard="0"
     showgrid="false"
     inkscape:zoom="14.979167"
     inkscape:cx="-21.496523"
     inkscape:cy="9.4464533"
     inkscape:window-width="1846"
     inkscape:window-height="1016"
     inkscape:window-x="0"
     inkscape:window-y="0"
     inkscape:window-maximized="1"
     inkscape:current-layer="svg827"
     fit-margin-top="0"
     fit-margin-left="0"
     fit-margin-right="0"
     fit-margin-bottom="0" />
  <g
     id="g824">
    <path
       id="path1273"
       style="fill:#fffafa;stroke:#8b4513;stroke-width:1;stroke-miterlimit:4;stroke-dasharray:none;stop-color:#000000"
       d="m 17.774338,8.8240366 c 0,4.5972384 -8.6371691,19.6954954 -8.6371691,19.6954954 0,0 -8.6371679,-15.098257 -8.6371689,-19.6954954 C 0.500001,4.2267981 4.3669925,0.5 9.1371689,0.5 c 4.7701771,0 8.6371691,3.7267981 8.6371691,8.3240366 z"
       sodipodi:nodetypes="scsss" />
    <path
       d="m 4.6371686,4.4522129 a 1.5,1.5 0 0 0 -1.5,1.5 v 7.0000001 a 1.5,1.5 0 0 0 1.5,1.5 h 9.0000004 a 1.5,1.5 0 0 0 1.5,-1.5 V 5.9522129 a 1.5,1.5 0 0 0 -1.5,-1.5 z m 0,1 a 0.5,0.5 0 0 1 0,1 0.5,0.5 0 0 1 0,-1 z m 0,7.0000001 a 0.5,0.5 0 0 1 0,1 0.5,0.5 0 0 1 0,-1 z m 9.0000004,0 a 0.5,0.5 0 0 1 0,1 0.5,0.5 0 0 1 0,-1 z m 0,-7.0000001 a 0.5,0.5 0 0 1 0,1 0.5,0.5 0 0 1 0,-1 z m -6.5000004,1 h 1 v 1 h -1 z m 2,0 h 2.0000004 v 1 H 9.1371686 Z m -4,2 h 8.0000004 v 1 H 5.1371686 Z m 2,2.0000001 h 4.0000004 v 1 H 7.1371686 Z"
       id="path825"
       style="fill:#8b4513" />
  </g>
</svg>
