<?xml version="1.0" encoding="UTF-8" standalone="no"?>
<svg
   width="12"
   height="12"
   viewBox="0 0 12 12"
   version="1.1"
   id="svg827"
   sodipodi:docname="plaque.svg"
   inkscape:version="1.1.2 (0a00cf5339, 2022-02-04)"
   xmlns:inkscape="http://www.inkscape.org/namespaces/inkscape"
   xmlns:sodipodi="http://sodipodi.sourceforge.net/DTD/sodipodi-0.dtd"
   xmlns="http://www.w3.org/2000/svg"
   xmlns:svg="http://www.w3.org/2000/svg">
  <defs
     id="defs831" />
  <sodipodi:namedview
     id="namedview829"
     pagecolor="#ffffff"
     bordercolor="#666666"
     borderopacity="1.0"
     inkscape:pageshadow="2"
     inkscape:pageopacity="0.0"
     inkscape:pagecheckerboard="0"
     showgrid="false"
     inkscape:zoom="59.916667"
     inkscape:cx="-0.15020862"
     inkscape:cy="6"
     inkscape:window-width="1846"
     inkscape:window-height="1016"
     inkscape:window-x="74"
     inkscape:window-y="27"
     inkscape:window-maximized="1"
     inkscape:current-layer="svg827" />
  <path
     d="m1.5,1 a1.5,1.5 0 0 0 -1.5,1.5 v7 a1.5,1.5 0 0 0 1.5,1.5 h9 a1.5,1.5 0 0 0 1.5,-1.5 v-7 a1.5,1.5 0 0 0 -1.5,-1.5 z m0,1 a.5,.5 0 0 1 0,1 a.5,.5 0 0 1 0,-1 z m0,7 a.5,.5 0 0 1 0,1 a.5,.5 0 0 1 0,-1 z m9,0 a.5,.5 0 0 1 0,1 a.5,.5 0 0 1 0,-1 z m0,-7 a.5,.5 0 0 1 0,1 a.5,.5 0 0 1 0,-1 z m-6.5,1 h1 v1 h-1 z m2,0 h2 v1 h-2 z m-4,2 h8 v1 h-8 z m2,2 h4 v1 h-4 z"
     id="path825"
     style="fill:#8b4513" />
</svg>
