<?xml version="1.0" encoding="UTF-8" standalone="no"?>
<svg
   width="18.375"
   height="29.632322"
   viewBox="0 0 18.375 29.632323"
   version="1.1"
   id="svg4"
   sodipodi:docname="statuesmark.svg"
   inkscape:version="1.1.2 (0a00cf5339, 2022-02-04)"
   xmlns:inkscape="http://www.inkscape.org/namespaces/inkscape"
   xmlns:sodipodi="http://sodipodi.sourceforge.net/DTD/sodipodi-0.dtd"
   xmlns="http://www.w3.org/2000/svg"
   xmlns:svg="http://www.w3.org/2000/svg">
  <defs
     id="defs8" />
  <sodipodi:namedview
     id="namedview6"
     pagecolor="#ffffff"
     bordercolor="#666666"
     borderopacity="1.0"
     inkscape:pageshadow="2"
     inkscape:pageopacity="0.0"
     inkscape:pagecheckerboard="0"
     showgrid="false"
     inkscape:zoom="18.157492"
     inkscape:cx="7.9030738"
     inkscape:cy="16.164127"
     inkscape:window-width="1846"
     inkscape:window-height="1016"
     inkscape:window-x="0"
     inkscape:window-y="0"
     inkscape:window-maximized="1"
     inkscape:current-layer="svg4"
     fit-margin-top="0"
     fit-margin-left="0"
     fit-margin-right="0"
     fit-margin-bottom="0" />
  <g
     id="g830">
    <g
       id="g2217"
       style="stroke-width:1;stroke-miterlimit:4;stroke-dasharray:none"
       transform="translate(0.36144501,0.36144499)">
      <path
         id="path1180"
         style="fill:#fffafa;stroke:#8b4513;stroke-width:1;stroke-miterlimit:4;stroke-dasharray:none;stop-color:#000000"
         inkscape:transform-center-x="2.5164787"
         inkscape:transform-center-y="-0.40667357"
         d="M 8.826055,0.13855501 A 8.6878052,8.6878052 0 0 0 0.13855501,8.826055 8.6878052,8.6878052 0 0 0 1.0116019,12.597539 H 0.99988309 L 8.826055,28.158086 16.652227,12.597539 h -0.01172 a 8.6878052,8.6878052 0 0 0 0.873048,-3.771484 8.6878052,8.6878052 0 0 0 -8.6875,-8.68749999 z" />
    </g>
    <path
       d="m 9.1875,2.366792 c -0.6745672,0 -1.2221193,0.547552 -1.2221193,1.2221193 0,0.6745675 0.5475519,1.2198222 1.2221193,1.2198222 0.6745674,0 1.22212,-0.5452547 1.22212,-1.2198222 C 10.40962,2.914344 9.8620675,2.366792 9.1875,2.366792 Z M 7.9653807,5.6242453 c -0.429395,0 -0.8132148,0.3901747 -0.8132148,0.8132148 0,0.8142751 1.4242744,3.2717781 1.4242745,4.0729649 v 2.441942 h 1.2221192 v -2.441942 c 0,-0.7853327 1.4242744,-3.2586898 1.4242744,-4.0729649 0,-0.4506063 -0.364301,-0.8132148 -0.813214,-0.8132148 z M 5.6589751,14.128542 v 1.176175 h 7.0570499 v -1.176175 z m 1.176175,2.35235 v 2.35235 H 11.53985 v -2.35235 z"
       id="path2"
       style="fill:#8b4513;stroke-width:1.17618" />
  </g>
</svg>
