<?xml version="1.0" encoding="UTF-8" standalone="no"?>
<svg
   width="18.274336"
   height="29.52647"
   viewBox="0 0 18.274336 29.52647"
   version="1.1"
   id="svg957"
   sodipodi:docname="stonesmark.svg"
   inkscape:version="1.1.2 (0a00cf5339, 2022-02-04)"
   xmlns:inkscape="http://www.inkscape.org/namespaces/inkscape"
   xmlns:sodipodi="http://sodipodi.sourceforge.net/DTD/sodipodi-0.dtd"
   xmlns="http://www.w3.org/2000/svg"
   xmlns:svg="http://www.w3.org/2000/svg">
  <defs
     id="defs961" />
  <sodipodi:namedview
     id="namedview959"
     pagecolor="#ffffff"
     bordercolor="#666666"
     borderopacity="1.0"
     inkscape:pageshadow="2"
     inkscape:pageopacity="0.0"
     inkscape:pagecheckerboard="0"
     showgrid="false"
     inkscape:zoom="18.157492"
     inkscape:cx="-4.0754527"
     inkscape:cy="8.2335159"
     inkscape:window-width="1846"
     inkscape:window-height="1016"
     inkscape:window-x="0"
     inkscape:window-y="0"
     inkscape:window-maximized="1"
     inkscape:current-layer="svg957"
     fit-margin-top="0"
     fit-margin-left="0"
     fit-margin-right="0"
     fit-margin-bottom="0" />
  <g
     id="g824">
    <path
       id="path1273"
       style="fill:#fffafa;stroke:#8b4513;stroke-width:1;stroke-miterlimit:4;stroke-dasharray:none;stop-color:#000000"
       d="m 17.774336,8.8240366 c 0,4.5972374 -8.6371675,19.6954944 -8.6371675,19.6954944 0,0 -8.6371675,-15.098257 -8.6371685,-19.6954944 C 0.500001,4.2267981 4.3669921,0.5 9.1371685,0.5 c 4.7701755,0 8.6371675,3.7267981 8.6371675,8.3240366 z"
       sodipodi:nodetypes="scsss" />
    <path
       d="m 8.1371275,3.1969201 c -4.4238219,-0.00184 -6,1.9915246 -6,5.9389842 0,3.0610157 3,4.0610157 7.738275,4.0513857 3.9934295,0 6.2780495,-2.41525 6.2617195,-4.5667635 6e-6,-2.4236064 -4.999994,-5.4236064 -7.9999945,-5.4236064 z m -2,2 h 1 v 1 h -1 z m 2,0 h 3.0000005 v 1 H 8.1371275 Z m -4,3 h 9.0000005 v 1 H 4.1371275 Z m 2,1.9999999 h 5.0000005 v 1 H 6.1371275 Z"
       id="path955"
       style="fill:#8b4513" />
  </g>
</svg>
